<svg xmlns="http://www.w3.org/2000/svg" viewBox="0 0 24 24" fill="none" stroke="#8A4FFF" stroke-width="2" stroke-linecap="round" stroke-linejoin="round">
  <path d="M9.5 2A2.5 2.5 0 0 1 12 4.5v15a2.5 2.5 0 0 1-5 0v-8a2.5 2.5 0 0 1 2.5-2.5z" />
  <path d="M14.5 2A2.5 2.5 0 0 0 12 4.5v15a2.5 2.5 0 0 0 5 0v-8a2.5 2.5 0 0 0-2.5-2.5z" />
  <path d="M8 13a6 6 0 0 0 12 0" />
  <path d="M7 10.3C4.6 9.2 3 7.5 3 5.5a2.5 2.5 0 0 1 5 0" />
  <path d="M17 10.3c2.4-1.1 4-2.8 4-4.8a2.5 2.5 0 0 0-5 0" />
</svg>